<svg width="50" height="50" viewBox="0 0 50 50" fill="none" xmlns="http://www.w3.org/2000/svg">
<g id="mail_svg" clip-path="url(#clip0_595_1677)">
<path id="Vector" fill-rule="evenodd" clip-rule="evenodd" d="M25 0C11.1914 0 0 11.1914 0 25C0 38.8086 11.1914 50 25 50C38.8086 50 50 38.8086 50 25C50 11.1914 38.8086 0 25 0ZM9.5 13.5L25.5 28L41 13.5H9.5ZM19.5 25.5L9 36.5L8.5 15L19.5 25.5ZM21 26.5L25.5 30.5L30 26.5L40 38H10.5L21 26.5ZM31.5 25L41.5 15V37L31.5 25Z" fill="url(#paint0_linear_595_1677)"/>
</g>
<defs>
<linearGradient id="paint0_linear_595_1677" x1="-2.46873" y1="12.0625" x2="68.4687" y2="76.0313" gradientUnits="userSpaceOnUse">
<stop stop-color="#F1F1F1"/>
<stop offset="0.158795" stop-color="#B69CE8"/>
<stop offset="0.27857" stop-color="#D975FF"/>
<stop offset="0.566682" stop-color="#57E7D7"/>
<stop offset="0.812118" stop-color="#8987FD"/>
</linearGradient>
<clipPath id="clip0_595_1677">
<rect width="50" height="50" fill="white"/>
</clipPath>
</defs>
</svg>
