<svg width="50" height="50" viewBox="0 0 50 50" fill="none" xmlns="http://www.w3.org/2000/svg">
<g id="phone_svg" clip-path="url(#clip0_595_1690)">
<path id="Vector" d="M18.5295 0.851888C23.3055 -0.427852 28.3538 -0.262591 33.0359 1.32678C37.718 2.91615 41.8237 5.85823 44.8338 9.781C47.8438 13.7038 49.623 18.431 49.9464 23.3649C50.2698 28.2989 49.1228 33.2179 46.6506 37.5C44.1783 41.7821 40.4918 45.2349 36.0571 47.4218C31.6225 49.6088 26.639 50.4315 21.7368 49.7861C16.8345 49.1408 12.2338 47.0562 8.51629 43.796C4.79879 40.5359 2.13153 36.2466 0.851788 31.4705C-0.864289 25.066 0.034092 18.2421 3.3493 12.5C6.6645 6.75792 12.125 2.56796 18.5295 0.851888ZM22.1806 19.5373L13.0035 10.3657L10.6738 12.6949C9.83188 13.6141 9.30958 14.7808 9.18482 16.0211C9.06007 17.2614 9.33954 18.5088 9.98156 19.5773C11.9638 24.1564 14.8236 28.3031 18.3994 31.7833C21.8621 35.3365 25.9826 38.1826 30.5317 40.1631C31.6058 40.8328 32.8694 41.1328 34.13 41.0176C35.3905 40.9024 36.5788 40.3782 37.5138 39.5249L39.8426 37.1927L30.6655 28.021L28.3358 30.3502C27.7263 30.9614 27.2832 31.7182 27.0485 32.5489C23.4003 29.979 20.2203 26.8018 17.6471 23.1559C18.4788 22.9227 19.2369 22.4801 19.8488 21.8704L22.1806 19.5373ZM31.4385 27.2477L30.6655 28.021L39.8426 37.1927L40.6187 36.4185C40.887 36.1479 41.0374 35.7821 41.0371 35.4009C41.0368 35.0198 40.8858 34.6543 40.6171 34.384L33.4761 27.2452C33.2052 26.9761 32.8387 26.8252 32.4568 26.8257C32.0749 26.8262 31.7088 26.9779 31.4385 27.2477ZM13.7766 9.59234L13.0035 10.3657L22.1806 19.5373L22.9537 18.764C23.2228 18.4931 23.3737 18.1266 23.3732 17.7447C23.3728 17.3629 23.2211 16.9967 22.9513 16.7265L15.8111 9.59071C15.5402 9.32157 15.1737 9.17072 14.7918 9.17118C14.41 9.17164 14.0468 9.32256 13.7766 9.59234Z" fill="url(#paint0_linear_595_1690)"/>
</g>
<defs>
<linearGradient id="paint0_linear_595_1690" x1="19.6127" y1="54.8813" x2="63.0418" y2="-30.1953" gradientUnits="userSpaceOnUse">
<stop stop-color="#F1F1F1"/>
<stop offset="0.158795" stop-color="#B69CE8"/>
<stop offset="0.27857" stop-color="#D975FF"/>
<stop offset="0.566682" stop-color="#57E7D7"/>
<stop offset="0.812118" stop-color="#8987FD"/>
</linearGradient>
<clipPath id="clip0_595_1690">
<rect width="50" height="50" fill="white"/>
</clipPath>
</defs>
</svg>
