<svg width="50" height="50" viewBox="0 0 50 50" fill="none" xmlns="http://www.w3.org/2000/svg">
<g id="telegram_svg" clip-path="url(#clip0_595_1681)">
<path id="Vector" d="M39.4737 15.5717C39.4836 15.5729 39.4968 15.5745 39.51 15.5761C39.8543 15.6184 40.1608 15.7647 40.4001 15.9814L40.3956 15.9775C40.5663 16.1674 40.6661 16.4172 40.665 16.6846L40.6644 16.6896C40.6727 16.8946 40.6625 17.1275 40.6336 17.3632C40.6204 17.4703 40.6042 17.5753 40.583 17.6797L40.5848 17.6649C39.7348 21.5227 33.7013 33.4968 32.3476 37.7661C31.7744 39.5739 30.896 41.1024 30.2296 41.0808C28.7814 41.0385 26.9558 38.7113 25.6802 37.6315C23.6836 35.9396 22.5649 34.9024 20.6281 33.2547C18.3881 31.3523 20.0768 30.6616 21.6409 29.3919C22.0516 29.0576 31.0956 23.248 31.2831 22.7425C31.2936 22.712 31.3011 22.6778 31.3056 22.6415C31.3213 22.513 31.2879 22.3902 31.2214 22.2917C31.1426 22.2251 31.0394 22.1807 30.9273 22.1669C30.8532 22.1578 30.7805 22.164 30.7116 22.1806L30.7151 22.1793C30.4915 22.2021 25.1417 25.043 17.8646 28.7533C17.0604 29.2416 15.8452 29.729 14.8315 29.648L14.6359 29.6411C13.2286 29.2927 11.9737 28.4541 10.7985 27.8498L10.9156 27.9044C8.43259 27.1755 8.27195 25.795 8.4822 24.9545C8.5927 24.5176 9.2603 24.1385 10.485 23.8173C18.0623 21.5666 25.2261 19.2541 27.7486 18.5514C30.569 17.4711 35.8875 15.9425 39.2073 15.5891L39.4723 15.5698L39.4737 15.5717ZM27.9889 0.179302C14.306 -1.46729 1.86633 8.26954 0.186177 21.9533C-1.49641 35.6568 8.24792 48.1309 21.9531 49.8137C35.6583 51.4965 48.1307 41.7519 49.8135 28.0468C51.4936 14.363 41.779 1.90596 28.1075 0.193868L28.1042 0.193463C28.0658 0.188743 28.0273 0.184022 27.9889 0.179302Z" fill="url(#paint0_linear_595_1681)"/>
</g>
<defs>
<linearGradient id="paint0_linear_595_1681" x1="-0.687465" y1="8.81134" x2="61.9253" y2="80.9484" gradientUnits="userSpaceOnUse">
<stop stop-color="#F1F1F1"/>
<stop offset="0.158795" stop-color="#B69CE8"/>
<stop offset="0.27857" stop-color="#D975FF"/>
<stop offset="0.566682" stop-color="#57E7D7"/>
<stop offset="0.812118" stop-color="#8987FD"/>
</linearGradient>
<clipPath id="clip0_595_1681">
<rect width="50" height="50" fill="white"/>
</clipPath>
</defs>
</svg>
